<svg width="147" height="48" viewBox="0 0 147 48" fill="none" xmlns="http://www.w3.org/2000/svg">
<path d="M18.2501 12.4433C21.3982 12.4433 23.7805 13.1026 25.397 14.4214C27.0561 15.7402 28.1835 17.5056 28.779 19.7178C29.4171 21.8874 29.7362 24.3122 29.7362 26.9923V43.3281C29.7362 44.4341 29.3746 45.37 28.6514 46.1358C27.9282 46.859 27.0136 47.2206 25.9075 47.2206C24.8014 47.2206 23.8868 46.859 23.1636 46.1358C22.4404 45.37 22.0788 44.4341 22.0788 43.3281V26.9923C22.0788 25.5885 21.8874 24.3335 21.5045 23.2274C21.1642 22.0788 20.5261 21.1642 19.5902 20.4835C18.6543 19.8029 17.3142 19.4625 15.57 19.4625C13.8684 19.4625 12.422 19.8029 11.2308 20.4835C10.0822 21.1642 9.18887 22.0788 8.55075 23.2274C7.95518 24.3335 7.65739 25.5885 7.65739 26.9923V43.3281C7.65739 44.4341 7.29579 45.37 6.5726 46.1358C5.8494 46.859 4.93476 47.2206 3.8287 47.2206C2.72263 47.2206 1.808 46.859 1.0848 46.1358C0.361599 45.37 0 44.4341 0 43.3281V16.9739C0 15.8678 0.361599 14.9532 1.0848 14.23C1.808 13.4642 2.72263 13.0814 3.8287 13.0814C4.93476 13.0814 5.8494 13.4642 6.5726 14.23C7.29579 14.9532 7.65739 15.8678 7.65739 16.9739V19.7178L6.70022 19.5263C7.08309 18.8032 7.63612 18.0374 8.35932 17.2291C9.08252 16.3783 9.93334 15.5913 10.9118 14.8681C11.8902 14.1449 12.9963 13.5706 14.23 13.1452C15.4637 12.6772 16.8037 12.4433 18.2501 12.4433Z" fill="white"/>
<path d="M71.131 30.1829C71.131 33.6713 70.344 36.7555 68.77 39.4356C67.2385 42.0731 65.154 44.1364 62.5164 45.6253C59.9214 47.1142 57.0074 47.8587 53.7742 47.8587C50.5411 47.8587 47.6058 47.1142 44.9682 45.6253C42.3732 44.1364 40.2887 42.0731 38.7147 39.4356C37.1832 36.7555 36.4175 33.6713 36.4175 30.1829C36.4175 26.6945 37.1832 23.6316 38.7147 20.994C40.2887 18.3139 42.3732 16.2294 44.9682 14.7405C47.6058 13.209 50.5411 12.4433 53.7742 12.4433C57.0074 12.4433 59.9214 13.209 62.5164 14.7405C65.154 16.2294 67.2385 18.3139 68.77 20.994C70.344 23.6316 71.131 26.6945 71.131 30.1829ZM63.4736 30.1829C63.4736 28.0133 63.0269 26.1415 62.1336 24.5675C61.2827 22.9509 60.1129 21.6959 58.6239 20.8026C57.1775 19.9092 55.561 19.4625 53.7742 19.4625C51.9875 19.4625 50.3497 19.9092 48.8607 20.8026C47.4143 21.6959 46.2445 22.9509 45.3511 24.5675C44.5003 26.1415 44.0749 28.0133 44.0749 30.1829C44.0749 32.3099 44.5003 34.1817 45.3511 35.7983C46.2445 37.3723 47.4143 38.606 48.8607 39.4994C50.3497 40.3927 51.9875 40.8394 53.7742 40.8394C55.561 40.8394 57.1775 40.3927 58.6239 39.4994C60.1129 38.606 61.2827 37.3723 62.1336 35.7983C63.0269 34.1817 63.4736 32.3099 63.4736 30.1829Z" fill="white"/>
<path d="M105.782 12.4433C106.888 12.4433 107.803 12.8049 108.526 13.5281C109.249 14.2513 109.611 15.1872 109.611 16.3358V43.3281C109.611 44.4341 109.249 45.37 108.526 46.1358C107.803 46.859 106.888 47.2206 105.782 47.2206C104.676 47.2206 103.761 46.859 103.038 46.1358C102.315 45.37 101.953 44.4341 101.953 43.3281V40.2013L103.357 40.7756C103.357 41.3286 103.06 42.0093 102.464 42.8176C101.868 43.5833 101.06 44.3491 100.039 45.1148C99.0182 45.8805 97.8057 46.5399 96.4019 47.093C95.0406 47.6035 93.5516 47.8587 91.9351 47.8587C88.9997 47.8587 86.3409 47.1142 83.9586 45.6253C81.5763 44.0938 79.6832 42.0093 78.2794 39.3718C76.9181 36.6917 76.2374 33.6287 76.2374 30.1829C76.2374 26.6945 76.9181 23.6316 78.2794 20.994C79.6832 18.3139 81.555 16.2294 83.8948 14.7405C86.2346 13.209 88.8296 12.4433 91.6798 12.4433C93.5091 12.4433 95.1895 12.7198 96.7209 13.2728C98.2524 13.8258 99.5712 14.5278 100.677 15.3786C101.826 16.2294 102.698 17.1015 103.294 17.9949C103.932 18.8457 104.251 19.5689 104.251 20.1645L101.953 20.994V16.3358C101.953 15.2297 102.315 14.3151 103.038 13.5919C103.761 12.8261 104.676 12.4433 105.782 12.4433ZM92.8922 40.8394C94.7641 40.8394 96.4019 40.3715 97.8057 39.4356C99.2096 38.4997 100.294 37.2234 101.06 35.6069C101.868 33.9903 102.273 32.1823 102.273 30.1829C102.273 28.1409 101.868 26.3116 101.06 24.6951C100.294 23.0785 99.2096 21.8023 97.8057 20.8664C96.4019 19.9305 94.7641 19.4625 92.8922 19.4625C91.063 19.4625 89.4464 19.9305 88.0426 20.8664C86.6387 21.8023 85.5326 23.0785 84.7244 24.6951C83.9586 26.3116 83.5757 28.1409 83.5757 30.1829C83.5757 32.1823 83.9586 33.9903 84.7244 35.6069C85.5326 37.2234 86.6387 38.4997 88.0426 39.4356C89.4464 40.3715 91.063 40.8394 92.8922 40.8394Z" fill="white"/>
<path d="M135.833 12.4433C138.896 12.4433 141.214 13.1026 142.788 14.4214C144.405 15.7402 145.511 17.5056 146.107 19.7178C146.702 21.8874 147 24.3122 147 26.9923V43.3281C147 44.4341 146.638 45.37 145.915 46.1358C145.192 46.859 144.277 47.2206 143.171 47.2206C142.065 47.2206 141.151 46.859 140.427 46.1358C139.704 45.37 139.343 44.4341 139.343 43.3281V26.9923C139.343 25.5885 139.172 24.3335 138.832 23.2274C138.492 22.0788 137.875 21.1642 136.982 20.4835C136.088 19.8029 134.812 19.4625 133.153 19.4625C131.536 19.4625 130.154 19.8029 129.005 20.4835C127.857 21.1642 126.984 22.0788 126.389 23.2274C125.836 24.3335 125.559 25.5885 125.559 26.9923V43.3281C125.559 44.4341 125.198 45.37 124.474 46.1358C123.751 46.859 122.837 47.2206 121.731 47.2206C120.625 47.2206 119.71 46.859 118.987 46.1358C118.263 45.37 117.902 44.4341 117.902 43.3281V3.89251C117.902 2.78644 118.263 1.8718 118.987 1.14861C119.71 0.382868 120.625 0 121.731 0C122.837 0 123.751 0.382868 124.474 1.14861C125.198 1.8718 125.559 2.78644 125.559 3.89251V19.7178L124.602 19.5263C124.985 18.8032 125.517 18.0374 126.197 17.2291C126.878 16.3783 127.708 15.5913 128.686 14.8681C129.664 14.1449 130.749 13.5706 131.94 13.1452C133.132 12.6772 134.429 12.4433 135.833 12.4433Z" fill="white"/>
</svg>
